<svg width="148" height="242" viewBox="0 0 148 242" fill="none" xmlns="http://www.w3.org/2000/svg">
<path d="M84 10C84 4.47715 79.5228 -2.41411e-07 74 0C68.4772 2.41411e-07 64 4.47715 64 10L84 10ZM66.9289 212.071C70.8342 215.976 77.1658 215.976 81.0711 212.071L144.711 148.431C148.616 144.526 148.616 138.195 144.711 134.289C140.805 130.384 134.474 130.384 130.569 134.289L74 190.858L17.4315 134.289C13.5262 130.384 7.19457 130.384 3.28933 134.289C-0.615915 138.195 -0.615915 144.526 3.28933 148.431L66.9289 212.071ZM64 10L64 205L84 205L84 10L64 10Z" fill="#838383"/>
<path d="M11 232L136 232" stroke="#838383" stroke-width="20" stroke-linecap="round"/>
</svg>
